<svg id="Layer_5" enable-background="new 0 0 64 64" height="51" viewBox="0 0 64 64" width="43" xmlns="http://www.w3.org/2000/svg" xmlns:xlink="http://www.w3.org/1999/xlink"><linearGradient id="SVGID_1_" gradientUnits="userSpaceOnUse" x1="32" x2="32" y1="63" y2="1"><stop offset="0" stop-color="#9f2fff"/><stop offset="1" stop-color="#0bb1d3"/></linearGradient><path d="m63 26c0-2.757-2.243-5-5-5-1.116 0-2.136.38-2.969 1h-3.142c-.648 0-1.28.068-1.898.177.001-.059.009-.118.009-.177 0-1.431-.39-2.795-1.1-4.01 1.294-1.271 2.1-3.038 2.1-4.99 0-3.619-2.76-6.605-6.286-6.964-.857-2.962-3.562-5.036-6.714-5.036-2.548 0-4.775 1.373-6 3.413-1.225-2.04-3.452-3.413-6-3.413-3.152 0-5.857 2.074-6.714 5.036-3.526.359-6.286 3.345-6.286 6.964 0 1.952.806 3.719 2.1 4.99-.71 1.215-1.1 2.579-1.1 4.01 0 .059.008.118.009.177-.617-.109-1.249-.177-1.898-.177h-3.142c-.833-.62-1.853-1-2.969-1-2.757 0-5 2.243-5 5 0 2.279 1.543 4.186 3.632 4.786-1.58 1.56-3.632 4.006-3.632 6.214v.721l3 1v.661c0 1.38.767 2.62 2 3.236.5.25 1.059.382 1.618.382h1.382v1.396c-4.951 2.724-8 7.859-8 13.549v5.055h62v-5.056c0-5.689-3.049-10.825-8-13.549v-1.395h1.382c.559 0 1.118-.132 1.618-.382 1.234-.616 2-1.856 2-3.236v-.661l3-1v-.721c0-2.208-2.052-4.654-3.632-6.214 2.089-.6 3.632-2.507 3.632-4.786zm-25-23c2.449 0 4.52 1.754 4.924 4.17l.229.83h.847c2.757 0 5 2.243 5 5s-2.243 5-5 5c-2.449 0-4.52-1.754-4.924-4.17l-1.973.33c.566 3.384 3.467 5.84 6.897 5.84 1.189 0 2.309-.3 3.291-.826.464.864.709 1.825.709 2.826 0 .251-.02.501-.051.749-2.959 1.154-5.287 3.561-6.336 6.571-.558-1.193-1.674-2.075-3.021-2.276l-.655-1.092c-1.104-1.841-2.9-3.152-4.937-3.686v-14.266c0-2.757 2.243-5 5-5zm0 50v8h-12v-8h-2v8h-3v-2-7.085c0-2.065 1.101-4.009 2.872-5.072.92-.552 1.972-.843 3.044-.843h.327l1.073 8.58 3.684-4.913 3.685 4.913 1.073-8.58h.327c1.072 0 2.124.291 3.043.843 1.771 1.063 2.872 3.007 2.872 5.072v7.085 2h-3v-8zm-14-21.77c0-1.815.708-3.523 1.992-4.808l.624-.625c1.159-1.158 2.701-1.797 4.342-1.797 2.145 0 4.162 1.143 5.265 2.981l1.211 2.019h.566c1.103 0 2 .897 2 2v.23c0 .637-.138 1.257-.391 1.832-.197-.04-.4-.062-.609-.062h-1v-.007h-1.171c-1.557 0-3.021-.606-4.122-1.707l-.707-.707-.707.707c-1.101 1.101-2.565 1.707-4.122 1.707h-1.171v.007h-1c-.209 0-.412.022-.609.063-.253-.576-.391-1.196-.391-1.833zm14 3.77h1c.551 0 1 .448 1 1s-.449 1-1 1h-1zm-3.354 11.768-.332 2.652-.995-1.326zm-.753-2.075-1.893 1.893-1.893-1.893.234-.938c.527.152 1.082.238 1.658.238s1.131-.086 1.658-.238zm-3.213 3.401-.995 1.326-.332-2.652zm1.32-6.101c-2.206 0-4-1.794-4-4v-3.043c1.466-.153 2.843-.712 4-1.622 1.157.91 2.534 1.469 4 1.622v3.043c0 2.206-1.794 4-4 4zm-7-4.993c-.551 0-1-.448-1-1s.449-1 1-1h1v2zm-2.816 0c.414 1.161 1.514 2 2.816 2h1.091c.269 1.584 1.159 2.957 2.413 3.86l-.285 1.14h-1.304c-1.434 0-2.842.39-4.073 1.128-1.023.614-1.866 1.456-2.508 2.428-.702-1.239-1.898-2.162-3.335-2.455v-2.484c2.412-1.213 4.213-3.222 5.185-5.617zm-6.184 10c1.654 0 3 1.346 3 3v1.915 3.085h-6v-5c0-1.654 1.346-3 3-3zm-3 10h6v2 2h-6zm32 2v-2h6v4h-6zm6-4h-6v-3.085-1.915c0-1.654 1.346-3 3-3s3 1.346 3 3zm-4-9.899c-1.437.293-2.633 1.216-3.335 2.455-.642-.972-1.485-1.814-2.508-2.428-1.23-.738-2.638-1.128-4.073-1.128h-1.304l-.285-1.14c1.254-.903 2.144-2.276 2.413-3.86h1.092c1.302 0 2.401-.838 2.816-2 .973 2.395 2.773 4.404 5.184 5.616zm-31-23.101c0-1.001.245-1.962.709-2.826.982.526 2.102.826 3.291.826 3.43 0 6.331-2.456 6.897-5.84l-1.973-.33c-.404 2.416-2.475 4.17-4.924 4.17-2.757 0-5-2.243-5-5 0-2.755 2.238-4.996 5.049-4.996h.008l.874.028.145-.862c.404-2.416 2.475-4.17 4.924-4.17 2.757 0 5 2.243 5 5v14.003c-.014 0-.028-.003-.042-.003-2.175 0-4.219.847-5.756 2.384l-.624.625c-1.132 1.132-1.907 2.52-2.293 4.031-1.093-2.878-3.367-5.173-6.233-6.291-.032-.248-.052-.498-.052-.749zm-13 4c0-1.654 1.346-3 3-3s3 1.346 3 3h2c0-.712-.154-1.386-.424-2h1.535c4.902 0 8.889 3.987 8.889 8.889 0 3.251-1.747 6.174-4.565 7.745l-1.099-2.197c1.034-.628 1.664-1.74 1.664-2.965 0-1.849-1.453-3.365-3.277-3.466l-.318-.955c-.41-1.227-1.553-2.051-2.846-2.051h-2.559-1.351-.649c-1.654 0-3-1.346-3-3zm10 17v-2h-5.382c-.25 0-.5-.059-.724-.171-.551-.275-.894-.83-.894-1.447v-2.103l-2.89-.963c.51-1.717 2.678-4.002 4.247-5.316h.643 2.559c.431 0 .813.274.949.684l.771 2.316h1.249c.811 0 1.472.66 1.472 1.472 0 .562-.312 1.066-.813 1.317l-1.528.764 2.341 4.683v2.865c-.95.194-1.799.663-2.471 1.313-.968-.547-1.394-1.318-1.529-1.614v-1.8zm-10 14.944c0-4.813 2.506-9.171 6.603-11.59.361.537.931 1.177 1.791 1.701-.254.599-.394 1.256-.394 1.945v11h-8zm58 0v3.056h-8v-11c0-.469-.086-.913-.207-1.344.844-.708 1.382-1.552 1.714-2.231 4.03 2.432 6.493 6.751 6.493 11.519zm-.11-21.628-2.89.963v2.103c0 .617-.343 1.172-.895 1.447-.223.112-.473.171-.723.171h-5.382v2h2v1.855c-.095.296-.438 1.203-1.172 1.967-.714-.859-1.693-1.49-2.828-1.721v-2.865l2.342-4.684-1.528-.764c-.502-.25-.814-.755-.814-1.316 0-.812.661-1.472 1.472-1.472h1.249l.772-2.316c.136-.41.517-.684.948-.684h2.559.643c1.569 1.314 3.737 3.599 4.247 5.316zm-2.89-7.316h-.649-1.351-2.559c-1.293 0-2.437.824-2.846 2.051l-.318.955c-1.824.1-3.277 1.617-3.277 3.466 0 1.226.63 2.337 1.664 2.965l-1.098 2.197c-2.82-1.572-4.566-4.494-4.566-7.745 0-4.902 3.987-8.889 8.889-8.889h1.535c-.27.614-.424 1.288-.424 2h2c0-1.654 1.346-3 3-3s3 1.346 3 3-1.346 3-3 3zm-27 24h2v2h-2zm0 4h2v2h-2z" fill="url(#SVGID_1_)"/></svg>