<svg height="502pt" viewBox="-3 0 502 502.448" width="502pt" xmlns="http://www.w3.org/2000/svg" xmlns:xlink="http://www.w3.org/1999/xlink"><linearGradient id="a" gradientUnits="userSpaceOnUse" x1="248.224" x2="248.224" y1="502.4504" y2="-.0024"><stop offset="0" stop-color="#9f2fff"/><stop offset="1" stop-color="#0bb1d3"/></linearGradient><path d="m198.273438 141.96875-126.457032-126.457031c-7.921875-7.917969-18.449218-12.28125-29.65625-12.28125-23.121094 0-41.9375 18.816406-41.9375 41.9375 0 11.199219 4.363282 21.734375 12.28125 29.65625l125.625 125.625-93.296875 90.703125 211.289063 211.296875 240.101562-231.816407v-118.710937l-151.917968-151.921875zm96.519531 155.832031-29.601563-4.226562 25.375-25.375zm-222.570313-185.878906-12.6875-12.691406 36.6875-36.6875 12.6875 12.6875zm24-1.378906 164.6875 164.6875-12.6875 12.691406-164.6875-164.691406zm176 153.378906-164.6875-164.691406 12.6875-12.6875 164.6875 164.6875zm-256-218.753906c0-14.304688 11.632813-25.9375 25.9375-25.9375 6.929688 0 13.449219 2.699219 18.34375 7.59375l24.40625 24.40625-36.6875 36.691406-24.40625-24.410156c-4.894531-4.894531-7.59375-11.414063-7.59375-18.34375zm51.394532 246.144531 81.832031-79.542969 95.007812 95.007813 69.199219 9.886718-9.886719-69.199218-94.183593-94.183594 134.558593-130.816406 132.765625 132.765625-56 56 55.898438 55.898437-220.480469 212.878906zm375.917968-80.082031 36.6875-36.6875v73.378906zm0 0" fill="url(#a)"/></svg>